<svg xmlns="http://www.w3.org/2000/svg" width="36" height="36" viewBox="0 0 36 36">
  <g id="Group_10257" data-name="Group 10257" transform="translate(-1393 -293)">
    <path id="Oval-1" d="M36,18A18,18,0,1,0,18,36,18,18,0,0,0,36,18Zm-2.16,0A15.84,15.84,0,1,0,18,33.84,15.84,15.84,0,0,0,33.84,18Z" transform="translate(1393 293)" fill="#000" fill-rule="evenodd"/>
    <path id="Path_6558" data-name="Path 6558" d="M15.38,4H3.487A1.485,1.485,0,0,0,2.007,5.487L2,14.407a1.491,1.491,0,0,0,1.487,1.487H15.38a1.491,1.491,0,0,0,1.487-1.487V5.487A1.491,1.491,0,0,0,15.38,4Zm0,2.973L9.433,10.69,3.487,6.973V5.487L9.433,9.2,15.38,5.487Z" transform="translate(1401.988 301.246)" fill="#000"/>
  </g>
</svg>
