<svg id="Page-1" xmlns="http://www.w3.org/2000/svg" width="36" height="36" viewBox="0 0 36 36">
  <g id="LinkedIn">
    <path id="Oval-1" d="M18,36A18,18,0,1,0,0,18,18,18,0,0,0,18,36Zm0-2.16A15.84,15.84,0,1,0,2.16,18,15.84,15.84,0,0,0,18,33.84ZM10.08,14.485V24.954h3.391V14.485ZM12,9.36a1.811,1.811,0,1,0-.044,3.618h.022A1.812,1.812,0,1,0,12,9.36Zm10.017,5.125a3.355,3.355,0,0,0-3.057,1.729V14.731H15.567c.045.982,0,10.469,0,10.469h3.392V19.353a2.441,2.441,0,0,1,.112-.849,1.862,1.862,0,0,1,1.74-1.272c1.228,0,1.718.96,1.718,2.367v5.6H25.92v-6C25.92,15.982,24.247,14.485,22.015,14.485Zm0,0" fill="#000" fill-rule="evenodd"/>
  </g>
</svg>
