<svg xmlns="http://www.w3.org/2000/svg" width="70" height="52.55" viewBox="0 0 70 52.55">
  <g id="Group_6153" data-name="Group 6153" transform="translate(-901.644 -4331.008)">
    <g id="Group_6142" data-name="Group 6142" transform="translate(901.644 4331.008)">
      <path id="Path_4514" data-name="Path 4514" d="M1237.221,1082.763h28.893c.116.209.2.29.2.371-.049,8.157.365,16.349-.267,24.461-1.024,13.147-8.457,21.709-20.7,26.217-1.628.6-3.336.984-5.118,1.5l-3.006-6.179v-.292a11.909,11.909,0,0,0,1.736-.658,19.28,19.28,0,0,0,9.641-13.5c.182-.867.21-1.766.322-2.76h-11.7Z" transform="translate(-1237.221 -1082.763)" fill="#000"/>
      <path id="Path_4515" data-name="Path 4515" d="M1379.708,1135.5l-2.849-6.172c7.174-3.466,10.87-9.188,11.707-17.127H1376.9v-29.075h29.059v1.3c0,6.656.019,13.313-.005,19.969-.032,8.568-2.648,16.141-8.835,22.253C1392.314,1131.4,1386.435,1134.106,1379.708,1135.5Z" transform="translate(-1335.965 -1083.022)" fill="#000"/>
    </g>
  </g>
</svg>
