<svg id="Page-1" xmlns="http://www.w3.org/2000/svg" width="36" height="36" viewBox="0 0 36 36">
  <g id="Twitter">
    <path id="Oval-1" d="M18,36A18,18,0,1,0,0,18,18,18,0,0,0,18,36Zm0-2.16A15.84,15.84,0,1,0,2.16,18,15.84,15.84,0,0,0,18,33.84ZM17.771,14.8l.034.592-.572-.072a9.161,9.161,0,0,1-5.448-2.8l-.755-.785-.195.58a3.6,3.6,0,0,0,.71,3.574c.458.507.355.58-.435.278-.275-.1-.515-.169-.538-.133a4.486,4.486,0,0,0,.412,1.618,3.771,3.771,0,0,0,1.568,1.546l.561.278-.664.012c-.641,0-.664.012-.6.266a3.519,3.519,0,0,0,2.14,1.98l.71.254-.618.386a6.235,6.235,0,0,1-3.067.894,3.252,3.252,0,0,0-.939.1,8.547,8.547,0,0,0,2.209,1.063A9.3,9.3,0,0,0,19.8,23.53a10.391,10.391,0,0,0,3.811-4.685,12.933,12.933,0,0,0,.778-3.623c0-.555.034-.628.675-1.292a7.781,7.781,0,0,0,.8-.93c.114-.229.1-.229-.481-.024-.973.362-1.11.314-.629-.229a3.543,3.543,0,0,0,.778-1.292c0-.036-.172.024-.366.133A6.221,6.221,0,0,1,24.158,12l-.618.205-.561-.4a4.589,4.589,0,0,0-.973-.531,3.748,3.748,0,0,0-2,.048A3.46,3.46,0,0,0,17.771,14.8Zm0,0" fill="#000" fill-rule="evenodd"/>
  </g>
</svg>
