<svg xmlns="http://www.w3.org/2000/svg" width="24.994" height="28.3" viewBox="0 0 24.994 28.3">
  <g id="_004-user" data-name="004-user" transform="translate(0.5 0.5)">
    <g id="Group_991" data-name="Group 991" transform="translate(4.799)">
      <g id="Group_990" data-name="Group 990">
        <path id="Path_2706" data-name="Path 2706" d="M128.2,0a7.2,7.2,0,1,0,7.2,7.2A7.206,7.206,0,0,0,128.2,0Zm0,12.8a5.6,5.6,0,1,1,5.6-5.6A5.6,5.6,0,0,1,128.2,12.8Z" transform="translate(-121)" fill="#000" stroke="#000" stroke-width="1"/>
      </g>
    </g>
    <g id="Group_993" data-name="Group 993" transform="translate(0 15.996)">
      <g id="Group_992" data-name="Group 992">
        <path id="Path_2707" data-name="Path 2707" d="M51.953,303.1A10.262,10.262,0,0,0,44.6,300H41.4a10.262,10.262,0,0,0-7.356,3.1A10.49,10.49,0,0,0,31,310.5a.8.8,0,0,0,.8.8H54.194a.8.8,0,0,0,.8-.8A10.49,10.49,0,0,0,51.953,303.1Zm-19.318,6.6a8.852,8.852,0,0,1,8.763-8.1h3.2a8.852,8.852,0,0,1,8.763,8.1Z" transform="translate(-31 -300)" fill="#000" stroke="#000" stroke-width="1"/>   </g>
    </g>
  </g>
</svg>
