<svg xmlns="http://www.w3.org/2000/svg" width="36" height="36" viewBox="0 0 36 36">
  <path id="Oval-1" d="M36,18A18,18,0,1,0,18,36,18,18,0,0,0,36,18Zm-2.16,0A15.84,15.84,0,1,0,18,33.84,15.84,15.84,0,0,0,33.84,18Zm-7.367,4.151a2.218,2.218,0,0,1-1.9,1.725A58.969,58.969,0,0,1,18,24.12a58.966,58.966,0,0,1-6.576-.243,2.218,2.218,0,0,1-1.9-1.725A18.821,18.821,0,0,1,9.219,18a18.834,18.834,0,0,1,.309-4.151,2.218,2.218,0,0,1,1.9-1.725A58.972,58.972,0,0,1,18,11.88a58.967,58.967,0,0,1,6.576.243,2.218,2.218,0,0,1,1.9,1.725,18.819,18.819,0,0,1,.3,4.151A18.831,18.831,0,0,1,26.473,22.151ZM16.419,14.76l4.86,2.806-4.86,2.806Zm0,0" fill="#000" fill-rule="evenodd"/>
</svg>
